<?xml version="1.0" encoding="UTF-8" standalone="no"?>
<svg
   xmlns:dc="http://purl.org/dc/elements/1.1/"
   xmlns:cc="http://creativecommons.org/ns#"
   xmlns:rdf="http://www.w3.org/1999/02/22-rdf-syntax-ns#"
   xmlns:svg="http://www.w3.org/2000/svg"
   xmlns="http://www.w3.org/2000/svg"
   viewBox="0 0 1242.6667 778.66669"
   height="778.66669"
   width="1242.6667"
   xml:space="preserve"
   id="svg2"
   version="1.1"><metadata
     id="metadata8"><rdf:RDF><cc:Work
         rdf:about=""><dc:format>image/svg+xml</dc:format><dc:type
           rdf:resource="http://purl.org/dc/dcmitype/StillImage" /></cc:Work></rdf:RDF></metadata><defs
     id="defs6" /><g
     transform="matrix(1.3333333,0,0,-1.3333333,0,778.66667)"
     id="g10"><g
       transform="scale(0.1)"
       id="g12"><path
         id="path14"
         style="fill:#b9efc3;fill-opacity:1;fill-rule:evenodd;stroke:none"
         d="M 940,40 H 7600 V 5800 H 940 Z" /><path
         id="path16"
         style="fill:none;stroke:#b9efc3;stroke-width:9.75;stroke-linecap:round;stroke-linejoin:miter;stroke-miterlimit:6;stroke-dasharray:none;stroke-opacity:1"
         d="M 940,40 H 7600 V 5800 H 940 Z" /><path
         id="path18"
         style="fill:#cccccc;fill-opacity:1;fill-rule:evenodd;stroke:none"
         d="m 1360,5200 h 1020 v 480 H 1360 Z" /><path
         id="path20"
         style="fill:none;stroke:#cccccc;stroke-width:9.75;stroke-linecap:round;stroke-linejoin:miter;stroke-miterlimit:6;stroke-dasharray:none;stroke-opacity:1"
         d="m 1360,5200 h 1020 v 480 H 1360 Z" /><path
         id="path22"
         style="fill:#cccccc;fill-opacity:1;fill-rule:evenodd;stroke:none"
         d="m 3040,5260 h 1380 v 420 H 3040 Z" /><path
         id="path24"
         style="fill:none;stroke:#cccccc;stroke-width:9.75;stroke-linecap:round;stroke-linejoin:miter;stroke-miterlimit:6;stroke-dasharray:none;stroke-opacity:1"
         d="m 3040,5260 h 1380 v 420 H 3040 Z" /><path
         id="path26"
         style="fill:#cccccc;fill-opacity:1;fill-rule:evenodd;stroke:none"
         d="M 1060,160 H 7480 V 5020 H 1060 Z" /><path
         id="path28"
         style="fill:none;stroke:#cccccc;stroke-width:9.75;stroke-linecap:round;stroke-linejoin:miter;stroke-miterlimit:6;stroke-dasharray:none;stroke-opacity:1"
         d="M 1060,160 H 7480 V 5020 H 1060 Z" /><path
         id="path30"
         style="fill:#ffffff;fill-opacity:1;fill-rule:evenodd;stroke:none"
         d="m 1360,1360 h 960 v 2700 h -960 z" /><path
         id="path32"
         style="fill:none;stroke:#ffffff;stroke-width:9.75;stroke-linecap:round;stroke-linejoin:miter;stroke-miterlimit:6;stroke-dasharray:none;stroke-opacity:1"
         d="m 1360,1360 h 960 v 2700 h -960 z" /><path
         id="path34"
         style="fill:#ffffff;fill-opacity:1;fill-rule:evenodd;stroke:none"
         d="m 1360,760 h 960 v 360 h -960 z" /><path
         id="path36"
         style="fill:none;stroke:#ffffff;stroke-width:9.75;stroke-linecap:round;stroke-linejoin:miter;stroke-miterlimit:6;stroke-dasharray:none;stroke-opacity:1"
         d="m 1360,760 h 960 v 360 h -960 z" /><path
         id="path38"
         style="fill:#ffffff;fill-opacity:1;fill-rule:evenodd;stroke:none"
         d="M 2560,2020 H 4900 V 4060 H 2560 Z" /><path
         id="path40"
         style="fill:none;stroke:#ffffff;stroke-width:9.75;stroke-linecap:round;stroke-linejoin:miter;stroke-miterlimit:6;stroke-dasharray:none;stroke-opacity:1"
         d="M 2560,2020 H 4900 V 4060 H 2560 Z" /><path
         id="path42"
         style="fill:#ffffff;fill-opacity:1;fill-rule:evenodd;stroke:none"
         d="m 3220,4420 h 960 v 420 h -960 z" /><path
         id="path44"
         style="fill:none;stroke:#ffffff;stroke-width:9.75;stroke-linecap:round;stroke-linejoin:miter;stroke-miterlimit:6;stroke-dasharray:none;stroke-opacity:1"
         d="m 3220,4420 h 960 v 420 h -960 z" /><path
         id="path46"
         style="fill:#ffffff;fill-opacity:1;fill-rule:evenodd;stroke:none"
         d="M 5560,2320 H 7300 V 4120 H 5560 Z" /><path
         id="path48"
         style="fill:none;stroke:#ffffff;stroke-width:9.75;stroke-linecap:round;stroke-linejoin:miter;stroke-miterlimit:6;stroke-dasharray:none;stroke-opacity:1"
         d="M 5560,2320 H 7300 V 4120 H 5560 Z" /><path
         id="path50"
         style="fill:#ffffff;fill-opacity:1;fill-rule:evenodd;stroke:none"
         d="m 5560,1840 h 1740 v 360 H 5560 Z" /><path
         id="path52"
         style="fill:none;stroke:#ffffff;stroke-width:9.75;stroke-linecap:round;stroke-linejoin:miter;stroke-miterlimit:6;stroke-dasharray:none;stroke-opacity:1"
         d="m 5560,1840 h 1740 v 360 H 5560 Z" /><path
         id="path54"
         style="fill:#ffffff;fill-opacity:1;fill-rule:evenodd;stroke:none"
         d="m 5560,1360 h 1740 v 360 H 5560 Z" /><path
         id="path56"
         style="fill:none;stroke:#ffffff;stroke-width:9.75;stroke-linecap:round;stroke-linejoin:miter;stroke-miterlimit:6;stroke-dasharray:none;stroke-opacity:1"
         d="m 5560,1360 h 1740 v 360 H 5560 Z" /><path
         id="path58"
         style="fill:#ffffff;fill-opacity:1;fill-rule:evenodd;stroke:none"
         d="m 5560,880 h 1740 v 360 H 5560 Z" /><path
         id="path60"
         style="fill:none;stroke:#ffffff;stroke-width:9.75;stroke-linecap:round;stroke-linejoin:miter;stroke-miterlimit:6;stroke-dasharray:none;stroke-opacity:1"
         d="m 5560,880 h 1740 v 360 H 5560 Z" /><path
         id="path62"
         style="fill:#ffffff;fill-opacity:1;fill-rule:evenodd;stroke:none"
         d="M 5800,280 H 7180 V 640 H 5800 Z" /><path
         id="path64"
         style="fill:none;stroke:#ffffff;stroke-width:9.75;stroke-linecap:round;stroke-linejoin:miter;stroke-miterlimit:6;stroke-dasharray:none;stroke-opacity:1"
         d="M 5800,280 H 7180 V 640 H 5800 Z" /><g
         transform="scale(10)"
         id="g66"><text
           id="text72"
           style="font-variant:normal;font-weight:bold;font-size:15px;font-family:Helvetica;-inkscape-font-specification:Helvetica-Bold;writing-mode:lr-tb;fill:#000000;fill-opacity:1;fill-rule:nonzero;stroke:none"
           transform="matrix(1,0,0,-1,585.52,394)"><tspan
             id="tspan68"
             y="0"
             x="0 10.005 14.175 23.34 28.334999 32.505001 40.845001 50.009998 59.174999 64.169998 70.004997 79.169998 83.339996 87.510002 95.849998 101.685 105.855">Slot controller 0</tspan><tspan
             id="tspan70"
             y="138"
             x="-258.62799 -249.463 -245.293 -236.12801 -224.45799 -220.28799 -211.948 -206.11301 -196.948 -192.778 -187.783 -179.44299">FIFO arbiter</tspan></text>
<text
           id="text76"
           style="font-variant:normal;font-weight:normal;font-size:15px;font-family:Helvetica;-inkscape-font-specification:Helvetica;writing-mode:lr-tb;fill:#000000;fill-opacity:1;fill-rule:nonzero;stroke:none"
           transform="matrix(1,0,0,-1,350.8764,466)"><tspan
             id="tspan74"
             y="0"
             x="0 12.495 16.665001">MIG</tspan></text>
<text
           id="text80"
           style="font-variant:normal;font-weight:normal;font-size:12px;font-family:Helvetica;-inkscape-font-specification:Helvetica;writing-mode:lr-tb;fill:#000000;fill-opacity:1;fill-rule:nonzero;stroke:none"
           transform="matrix(1,0,0,-1,351.79671,424)"><tspan
             id="tspan78"
             y="0"
             x="0 8.0039997 16.007999 19.344">AXI4</tspan></text>
<text
           id="text86"
           style="font-variant:normal;font-weight:normal;font-size:15px;font-family:Helvetica;-inkscape-font-specification:Helvetica;writing-mode:lr-tb;fill:#000000;fill-opacity:1;fill-rule:nonzero;stroke:none"
           transform="matrix(1,0,0,-1,320.66701,550)"><tspan
             id="tspan82"
             y="0"
             x="0 10.83 21.66 32.490002 40.830002 45 57.494999 65.834999 78.330002 86.669998 91.665001">DDR3 memory</tspan><tspan
             id="tspan84"
             y="18"
             x="24.8234 33.163399 41.503399 49.843399 54.013401 66.5084">256 MB</tspan></text>
<text
           id="text94"
           style="font-variant:normal;font-weight:normal;font-size:12px;font-family:Helvetica;-inkscape-font-specification:Helvetica;writing-mode:lr-tb;fill:#000000;fill-opacity:1;fill-rule:nonzero;stroke:none"
           transform="matrix(1,0,0,-1,636.42841,361)"><tspan
             id="tspan88"
             y="0"
             x="0 8.0039997 16.007999 19.344 22.68 32.675999 39.348 45.348 48.683998 55.355999">SPI master</tspan><tspan
             id="tspan90"
             y="36"
             x="-0.62031299 2.715687 9.3876867 17.391687 20.727688 26.727688 33.399689 40.071686 44.067688 50.067688">I2S source</tspan><tspan
             id="tspan92"
             y="72"
             x="-0.62031299 2.715687 9.3876867 17.391687 20.727688 26.727688 33.399689 40.071686 43.407688 50.079685 54.075687">I2S capture</tspan></text>
<text
           id="text100"
           style="font-variant:normal;font-weight:normal;font-size:15px;font-family:Helvetica;-inkscape-font-specification:Helvetica;writing-mode:lr-tb;fill:#000000;fill-opacity:1;fill-rule:nonzero;stroke:none"
           transform="matrix(1,0,0,-1,20.7561,550)"><tspan
             id="tspan96"
             y="0"
             x="0 10.83 19.17 26.67">Host</tspan><tspan
             id="tspan98"
             y="18"
             x="0.15000001 5.145 15.975 25.98 35.985001">(USB)</tspan></text>
<text
           id="text104"
           style="font-variant:normal;font-weight:bold;font-size:15px;font-family:Helvetica;-inkscape-font-specification:Helvetica-Bold;writing-mode:lr-tb;fill:#000000;fill-opacity:1;fill-rule:nonzero;stroke:none"
           transform="matrix(1,0,0,-1,597.3701,40)"><tspan
             id="tspan102"
             y="0"
             x="0 11.67 21.674999 25.844999 37.514999 41.685001 46.68 55.02 63.360001 69.195 73.364998 82.529999 90.870003 99.209999">GPIO (ser/des)</tspan></text>
<text
           id="text108"
           style="font-variant:normal;font-weight:normal;font-size:15px;font-family:Helvetica;-inkscape-font-specification:Helvetica;writing-mode:lr-tb;fill:#000000;fill-opacity:1;fill-rule:nonzero;stroke:none"
           transform="matrix(1,0,0,-1,338.9061,448)"><tspan
             id="tspan106"
             y="0"
             x="0 4.9949999 15 18.33 21.66 24.99 33.330002 40.830002 45 49.169998 59.174999">(Xilinx IP)</tspan></text>
<text
           id="text114"
           style="font-variant:normal;font-weight:normal;font-size:18px;font-family:Helvetica;-inkscape-font-specification:Helvetica;writing-mode:lr-tb;fill:#000000;fill-opacity:1;fill-rule:nonzero;stroke:none"
           transform="matrix(1,0,0,-1,129.6031,28)"><tspan
             id="tspan110"
             y="0"
             x="0 12.006 16.002001 19.997999 23.993999 34.001999 43.001999 48.006001 60.012001 73.008003 83.015999 95.022003 105.03 115.038 126.036 131.03999 142.03799 154.04401 168.048">Xilinx XC7A35T FPGA</tspan><tspan
             id="tspan112"
             y="-528"
             x="365.892 376.89001 387.888 399.89401 411.89999 416.90399 429.89999 441.90601 453.91199 459.90601 470.90399 482.91 496.914 508.92001 513.92401 523.93201 528.93597 538.94397 548.95203 558.96002 563.96399 573.97198 583.97998 593.98798 599.98199">ZTEX USB-FPGA 2.13a board</tspan></text>
<text
           id="text118"
           style="font-variant:normal;font-weight:normal;font-size:15px;font-family:Helvetica;-inkscape-font-specification:Helvetica;writing-mode:lr-tb;fill:#000000;fill-opacity:1;fill-rule:nonzero;stroke:none"
           transform="matrix(1,0,0,-1,825.6861,82)"><tspan
             id="tspan116"
             y="0"
             x="0 9.165 17.504999 21.674999 30.014999 38.355 45.855 53.355 61.695 65.025002 73.364998 81.705002">To backplane</tspan></text>
<text
           id="text126"
           style="font-variant:normal;font-weight:bold;font-size:15px;font-family:Helvetica;-inkscape-font-specification:Helvetica-Bold;writing-mode:lr-tb;fill:#000000;fill-opacity:1;fill-rule:nonzero;stroke:none"
           transform="matrix(1,0,0,-1,147.3411,88)"><tspan
             id="tspan120"
             y="0"
             x="0 10.83 15 24.165001 32.505001 40.845001 45.014999 54.18 62.52 71.684998">Clock gen.</tspan><tspan
             id="tspan122"
             y="-174"
             x="0 10.83 19.995001 33.330002 46.665001 55.005001 64.169998">Command</tspan><tspan
             id="tspan124"
             y="-156"
             x="5.65625 14.82125 23.161249 32.326248 41.491249 45.661251 54.001251">handler</tspan></text>
<text
           id="text132"
           style="font-variant:normal;font-weight:normal;font-size:12px;font-family:Helvetica;-inkscape-font-specification:Helvetica;writing-mode:lr-tb;fill:#000000;fill-opacity:1;fill-rule:nonzero;stroke:none"
           transform="matrix(1,0,0,-1,507.42835,262)"><tspan
             id="tspan128"
             y="0"
             x="0 8.6639996 15.336 22.007999 25.344 29.34 36.012001">Control</tspan><tspan
             id="tspan130"
             y="-54"
             x="0.36875001 8.3727503 15.04475 21.716749 24.380751">Audio</tspan></text>
</g><path
         id="path134"
         style="fill:none;stroke:#000000;stroke-width:9.75;stroke-linecap:round;stroke-linejoin:miter;stroke-miterlimit:6;stroke-dasharray:none;stroke-opacity:1"
         d="m 6280,3160 h 780 v 240 h -780 z" /><path
         id="path136"
         style="fill:none;stroke:#000000;stroke-width:9.75;stroke-linecap:round;stroke-linejoin:miter;stroke-miterlimit:6;stroke-dasharray:none;stroke-opacity:1"
         d="m 6280,2800 h 780 v 240 h -780 z" /><path
         id="path138"
         style="fill:none;stroke:#000000;stroke-width:9.75;stroke-linecap:round;stroke-linejoin:miter;stroke-miterlimit:6;stroke-dasharray:none;stroke-opacity:1"
         d="M 5800,280 H 7180 V 640 H 5800 Z" /><path
         id="path140"
         style="fill:none;stroke:#000000;stroke-width:9.75;stroke-linecap:round;stroke-linejoin:miter;stroke-miterlimit:6;stroke-dasharray:none;stroke-opacity:1"
         d="m 4480,3280 h -300 v 240 h 300" /><path
         id="path142"
         style="fill:none;stroke:#000000;stroke-width:9.75;stroke-linecap:round;stroke-linejoin:miter;stroke-miterlimit:6;stroke-dasharray:none;stroke-opacity:1"
         d="m 4240,3280 v 240" /><path
         id="path144"
         style="fill:none;stroke:#000000;stroke-width:9.75;stroke-linecap:round;stroke-linejoin:miter;stroke-miterlimit:6;stroke-dasharray:none;stroke-opacity:1"
         d="m 4300,3280 v 240" /><path
         id="path146"
         style="fill:none;stroke:#000000;stroke-width:9.75;stroke-linecap:round;stroke-linejoin:miter;stroke-miterlimit:6;stroke-dasharray:none;stroke-opacity:1"
         d="m 4360,3280 v 240" /><path
         id="path148"
         style="fill:none;stroke:#000000;stroke-width:9.75;stroke-linecap:round;stroke-linejoin:miter;stroke-miterlimit:6;stroke-dasharray:none;stroke-opacity:1"
         d="M 4600,3400 H 4360" /><path
         id="path150"
         style="fill:none;stroke:#000000;stroke-width:9.75;stroke-linecap:round;stroke-linejoin:miter;stroke-miterlimit:6;stroke-dasharray:none;stroke-opacity:1"
         d="m 4000,3400 h 180" /><g
         transform="scale(10)"
         id="g152"><text
           id="text160"
           style="font-variant:normal;font-weight:normal;font-size:12px;font-family:Helvetica;-inkscape-font-specification:Helvetica;writing-mode:lr-tb;fill:#000000;fill-opacity:1;fill-rule:nonzero;stroke:none"
           transform="matrix(1,0,0,-1,170.927,538)"><tspan
             id="tspan154"
             y="0"
             x="0 7.3319998 15.336">FX2</tspan><tspan
             id="tspan156"
             y="-12"
             x="-11.4984 -2.8343999 3.1656001 9.8375998 13.8336 20.5056 26.5056">Cypress</tspan><tspan
             id="tspan158"
             y="12"
             x="-23.7609 -13.7649 -11.1009 -5.1009002 -1.1049 5.5671 11.5671 18.2391 24.9111 28.247101 32.243099 38.9151 41.579102 44.243099 50.9151">microcontroller</tspan></text>
</g><path
         id="path162"
         style="fill:none;stroke:#000000;stroke-width:9.75;stroke-linecap:round;stroke-linejoin:miter;stroke-miterlimit:6;stroke-dasharray:none;stroke-opacity:1"
         d="m 3040,5260 h 1380 v 420 H 3040 Z" /><path
         id="path164"
         style="fill:none;stroke:#000000;stroke-width:9.75;stroke-linecap:round;stroke-linejoin:miter;stroke-miterlimit:6;stroke-dasharray:none;stroke-opacity:1"
         d="m 3220,4420 h 960 v 420 h -960 z" /><path
         id="path166"
         style="fill:none;stroke:#000000;stroke-width:9.75;stroke-linecap:round;stroke-linejoin:miter;stroke-miterlimit:6;stroke-dasharray:none;stroke-opacity:1"
         d="m 6280,3520 h 780 v 240 h -780 z" /><path
         id="path168"
         style="fill:none;stroke:#000000;stroke-width:9.75;stroke-linecap:round;stroke-linejoin:miter;stroke-miterlimit:6;stroke-dasharray:none;stroke-opacity:1"
         d="m 5740,2440 h 300 v 1320 h -300 z" /><g
         transform="scale(10)"
         id="g170"><text
           id="text174"
           style="font-variant:normal;font-weight:normal;font-size:12px;font-family:Helvetica;-inkscape-font-specification:Helvetica;writing-mode:lr-tb;fill:#000000;fill-opacity:1;fill-rule:nonzero;stroke:none"
           transform="matrix(0,1,1,0,592,266.808)"><tspan
             id="tspan172"
             y="0"
             x="0 3.336 10.008 13.344 20.016001 24.011999 27.348 34.02 40.02 46.692001 50.028 52.692001 59.363998 66.036003 68.699997">Interface logic</tspan></text>
</g><path
         id="path176"
         style="fill:none;stroke:#000000;stroke-width:9.75;stroke-linecap:round;stroke-linejoin:miter;stroke-miterlimit:6;stroke-dasharray:none;stroke-opacity:1"
         d="M 2560,2020 H 4900 V 4060 H 2560 Z" /><path
         id="path178"
         style="fill:none;stroke:#000000;stroke-width:9.75;stroke-linecap:round;stroke-linejoin:miter;stroke-miterlimit:6;stroke-dasharray:none;stroke-opacity:1"
         d="m 3820,3820 60,120 h 180 l 60,-120 h -300" /><path
         id="path180"
         style="fill:none;stroke:#000000;stroke-width:9.75;stroke-linecap:round;stroke-linejoin:miter;stroke-miterlimit:6;stroke-dasharray:none;stroke-opacity:1"
         d="m 4120,2860 h 300 v 240 h -300" /><path
         id="path182"
         style="fill:none;stroke:#000000;stroke-width:9.75;stroke-linecap:round;stroke-linejoin:miter;stroke-miterlimit:6;stroke-dasharray:none;stroke-opacity:1"
         d="m 4360,2860 v 240" /><path
         id="path184"
         style="fill:none;stroke:#000000;stroke-width:9.75;stroke-linecap:round;stroke-linejoin:miter;stroke-miterlimit:6;stroke-dasharray:none;stroke-opacity:1"
         d="m 4300,2860 v 240" /><path
         id="path186"
         style="fill:none;stroke:#000000;stroke-width:9.75;stroke-linecap:round;stroke-linejoin:miter;stroke-miterlimit:6;stroke-dasharray:none;stroke-opacity:1"
         d="m 4240,2860 v 240" /><path
         id="path188"
         style="fill:none;stroke:#000000;stroke-width:9.75;stroke-linecap:round;stroke-linejoin:miter;stroke-miterlimit:6;stroke-dasharray:none;stroke-opacity:1"
         d="m 4000,2980 h 240" /><path
         id="path190"
         style="fill:none;stroke:#000000;stroke-width:9.75;stroke-linecap:round;stroke-linejoin:miter;stroke-miterlimit:6;stroke-dasharray:none;stroke-opacity:1"
         d="M 4600,2980 H 4420" /><path
         id="path192"
         style="fill:none;stroke:#000000;stroke-width:9.75;stroke-linecap:round;stroke-linejoin:miter;stroke-miterlimit:6;stroke-dasharray:none;stroke-opacity:1"
         d="m 3280,3340 h -300 v 240 h 300" /><path
         id="path194"
         style="fill:none;stroke:#000000;stroke-width:9.75;stroke-linecap:round;stroke-linejoin:miter;stroke-miterlimit:6;stroke-dasharray:none;stroke-opacity:1"
         d="m 3040,3340 v 240" /><path
         id="path196"
         style="fill:none;stroke:#000000;stroke-width:9.75;stroke-linecap:round;stroke-linejoin:miter;stroke-miterlimit:6;stroke-dasharray:none;stroke-opacity:1"
         d="m 3100,3340 v 240" /><path
         id="path198"
         style="fill:none;stroke:#000000;stroke-width:9.75;stroke-linecap:round;stroke-linejoin:miter;stroke-miterlimit:6;stroke-dasharray:none;stroke-opacity:1"
         d="m 3160,3340 v 240" /><path
         id="path200"
         style="fill:none;stroke:#000000;stroke-width:9.75;stroke-linecap:round;stroke-linejoin:miter;stroke-miterlimit:6;stroke-dasharray:none;stroke-opacity:1"
         d="M 3400,3460 H 3160" /><path
         id="path202"
         style="fill:none;stroke:#000000;stroke-width:9.75;stroke-linecap:round;stroke-linejoin:miter;stroke-miterlimit:6;stroke-dasharray:none;stroke-opacity:1"
         d="m 2800,3460 h 180" /><path
         id="path204"
         style="fill:none;stroke:#000000;stroke-width:9.75;stroke-linecap:round;stroke-linejoin:miter;stroke-miterlimit:6;stroke-dasharray:none;stroke-opacity:1"
         d="m 2920,2920 h 300 v 240 h -300" /><path
         id="path206"
         style="fill:none;stroke:#000000;stroke-width:9.75;stroke-linecap:round;stroke-linejoin:miter;stroke-miterlimit:6;stroke-dasharray:none;stroke-opacity:1"
         d="m 3160,2920 v 240" /><path
         id="path208"
         style="fill:none;stroke:#000000;stroke-width:9.75;stroke-linecap:round;stroke-linejoin:miter;stroke-miterlimit:6;stroke-dasharray:none;stroke-opacity:1"
         d="m 3100,2920 v 240" /><path
         id="path210"
         style="fill:none;stroke:#000000;stroke-width:9.75;stroke-linecap:round;stroke-linejoin:miter;stroke-miterlimit:6;stroke-dasharray:none;stroke-opacity:1"
         d="m 3040,2920 v 240" /><path
         id="path212"
         style="fill:none;stroke:#000000;stroke-width:9.75;stroke-linecap:round;stroke-linejoin:miter;stroke-miterlimit:6;stroke-dasharray:none;stroke-opacity:1"
         d="m 2800,3040 h 240" /><path
         id="path214"
         style="fill:none;stroke:#000000;stroke-width:9.75;stroke-linecap:round;stroke-linejoin:miter;stroke-miterlimit:6;stroke-dasharray:none;stroke-opacity:1"
         d="M 3400,3040 H 3220" /><path
         id="path216"
         style="fill:none;stroke:#000000;stroke-width:9.75;stroke-linecap:round;stroke-linejoin:miter;stroke-miterlimit:6;stroke-dasharray:none;stroke-opacity:1"
         d="m 1360,760 h 960 v 360 h -960 z" /><path
         id="path218"
         style="fill:none;stroke:#000000;stroke-width:9.75;stroke-linecap:round;stroke-linejoin:miter;stroke-miterlimit:6;stroke-dasharray:none;stroke-opacity:1"
         d="m 1360,1360 h 960 v 2700 h -960 z" /><g
         transform="scale(10)"
         id="g220"><text
           id="text228"
           style="font-variant:normal;font-weight:normal;font-size:12px;font-family:Helvetica;-inkscape-font-specification:Helvetica;writing-mode:lr-tb;fill:#000000;fill-opacity:1;fill-rule:nonzero;stroke:none"
           transform="matrix(1,0,0,-1,308.988,238)"><tspan
             id="tspan222"
             y="0"
             x="0 8.6639996 14.664 21.336 27.336 30.672001 37.344002 43.344002 46.68 53.352001 57.348 64.019997 70.692001 73.356003 76.692001 86.688004 93.360001 103.356 110.028 114.024">Uses external memory</tspan><tspan
             id="tspan224"
             y="12"
             x="0.84531301 4.181313 10.853313 14.189313 20.189314 24.185312 30.857313 37.529312 40.865314 47.537312 50.873314 56.873314 63.545315 69.545311 76.217316 80.21331 86.885315 89.549316 92.885315 95.549316 102.22131 106.21732 112.88931">to create several large</tspan><tspan
             id="tspan226"
             y="24"
             x="6.8937531 12.893753 15.557753 19.553753 22.889753 29.561752 36.233753 38.897755 42.233753 48.905754 54.905754 60.905754 67.577751 73.577751 76.91375 84.24575 87.581757 94.91375 104.24976">virtual async FIFOs</tspan></text>
</g><path
         id="path230"
         style="fill:none;stroke:#000000;stroke-width:9.75;stroke-linecap:round;stroke-linejoin:miter;stroke-miterlimit:6;stroke-dasharray:none;stroke-opacity:1"
         d="m 4480,3400 h 420 v 0 h 840" /><path
         id="path232"
         style="fill:none;stroke:#000000;stroke-width:9.75;stroke-linecap:round;stroke-linejoin:miter;stroke-miterlimit:6;stroke-dasharray:none;stroke-opacity:1"
         d="m 5740,2980 h -720 v 0 h -420" /><path
         id="path234"
         style="fill:none;stroke:#000000;stroke-width:9.75;stroke-linecap:round;stroke-linejoin:miter;stroke-miterlimit:6;stroke-dasharray:none;stroke-opacity:1"
         d="m 2320,3460 h 480" /><path
         id="path236"
         style="fill:none;stroke:#000000;stroke-width:9.75;stroke-linecap:round;stroke-linejoin:miter;stroke-miterlimit:6;stroke-dasharray:none;stroke-opacity:1"
         d="m 2320,3040 h 480" /><g
         transform="scale(10)"
         id="g238"><text
           id="text244"
           style="font-variant:normal;font-weight:normal;font-size:15px;font-family:Helvetica;-inkscape-font-specification:Helvetica;writing-mode:lr-tb;fill:#000000;fill-opacity:1;fill-rule:nonzero;stroke:none"
           transform="matrix(0,1,1,0,430,260.697)"><tspan
             id="tspan240"
             y="0"
             x="0 4.1700001 8.3400002">...</tspan><tspan
             id="tspan242"
             y="-120"
             x="6 10.17 14.34">...</tspan></text>
</g><path
         id="path246"
         style="fill:none;stroke:#000000;stroke-width:9.75;stroke-linecap:round;stroke-linejoin:miter;stroke-miterlimit:6;stroke-dasharray:none;stroke-opacity:1"
         d="M 3400,3820 V 3460" /><path
         id="path248"
         style="fill:none;stroke:#000000;stroke-width:9.75;stroke-linecap:round;stroke-linejoin:miter;stroke-miterlimit:6;stroke-dasharray:none;stroke-opacity:1"
         d="m 3460,3820 v -840 h 540" /><path
         id="path250"
         style="fill:none;stroke:#000000;stroke-width:9.75;stroke-linecap:round;stroke-linejoin:miter;stroke-miterlimit:6;stroke-dasharray:none;stroke-opacity:1"
         d="M 4000,3820 V 3400" /><path
         id="path252"
         style="fill:none;stroke:#000000;stroke-width:9.75;stroke-linecap:round;stroke-linejoin:miter;stroke-miterlimit:6;stroke-dasharray:none;stroke-opacity:1"
         d="M 3940,3820 V 3040 H 3400" /><path
         id="path254"
         style="fill:none;stroke:#000000;stroke-width:9.75;stroke-linecap:round;stroke-linejoin:miter;stroke-miterlimit:6;stroke-dasharray:none;stroke-opacity:1"
         d="m 3280,3820 60,120 h 180 l 60,-120 h -300" /><path
         id="path256"
         style="fill:none;stroke:#000000;stroke-width:9.75;stroke-linecap:round;stroke-linejoin:miter;stroke-miterlimit:6;stroke-dasharray:none;stroke-opacity:1"
         d="M 3430,4420 V 3940" /><path
         id="path258"
         style="fill:none;stroke:#000000;stroke-width:9.75;stroke-linecap:round;stroke-linejoin:miter;stroke-miterlimit:6;stroke-dasharray:none;stroke-opacity:1"
         d="M 3970,4420 V 3940" /><path
         id="path260"
         style="fill:none;stroke:#000000;stroke-width:9.75;stroke-linecap:round;stroke-linejoin:miter;stroke-miterlimit:6;stroke-dasharray:none;stroke-opacity:1"
         d="M 3700,5260 V 4840" /><path
         id="path262"
         style="fill:none;stroke:#000000;stroke-width:9.75;stroke-linecap:round;stroke-linejoin:miter;stroke-miterlimit:6;stroke-dasharray:none;stroke-opacity:1"
         d="m 3730,5110 -60,-30" /><path
         id="path264"
         style="fill:none;stroke:#000000;stroke-width:9.75;stroke-linecap:round;stroke-linejoin:miter;stroke-miterlimit:6;stroke-dasharray:none;stroke-opacity:1"
         d="m 3460,4210 -60,-30" /><path
         id="path266"
         style="fill:none;stroke:#000000;stroke-width:9.75;stroke-linecap:round;stroke-linejoin:miter;stroke-miterlimit:6;stroke-dasharray:none;stroke-opacity:1"
         d="m 4000,4210 -60,-30" /><path
         id="path268"
         style="fill:none;stroke:#000000;stroke-width:9.75;stroke-linecap:round;stroke-linejoin:miter;stroke-miterlimit:6;stroke-dasharray:none;stroke-opacity:1"
         d="m 5410,3370 30,60" /><path
         id="path270"
         style="fill:none;stroke:#000000;stroke-width:9.75;stroke-linecap:round;stroke-linejoin:miter;stroke-miterlimit:6;stroke-dasharray:none;stroke-opacity:1"
         d="m 5410,2950 30,60" /><path
         id="path272"
         style="fill:none;stroke:#000000;stroke-width:9.75;stroke-linecap:round;stroke-linejoin:miter;stroke-miterlimit:6;stroke-dasharray:none;stroke-opacity:1"
         d="m 2410,3430 30,60" /><path
         id="path274"
         style="fill:none;stroke:#000000;stroke-width:9.75;stroke-linecap:round;stroke-linejoin:miter;stroke-miterlimit:6;stroke-dasharray:none;stroke-opacity:1"
         d="m 2410,3010 30,60" /><path
         id="path276"
         style="fill:none;stroke:#000000;stroke-width:9.75;stroke-linecap:round;stroke-linejoin:miter;stroke-miterlimit:6;stroke-dasharray:none;stroke-opacity:1"
         d="M 5740,2800 H 5020 V 1840 H 2320" /><path
         id="path278"
         style="fill:none;stroke:#000000;stroke-width:9.75;stroke-linecap:round;stroke-linejoin:miter;stroke-miterlimit:6;stroke-dasharray:none;stroke-opacity:1"
         d="M 5740,2500 H 5080 V 1660 H 2320" /><path
         id="path280"
         style="fill:none;stroke:#000000;stroke-width:9.75;stroke-linecap:round;stroke-linejoin:miter;stroke-miterlimit:6;stroke-dasharray:none;stroke-opacity:1"
         d="m 5410,2770 30,60" /><path
         id="path282"
         style="fill:none;stroke:#000000;stroke-width:9.75;stroke-linecap:round;stroke-linejoin:miter;stroke-miterlimit:6;stroke-dasharray:none;stroke-opacity:1"
         d="m 5410,2470 30,60" /><path
         id="path284"
         style="fill:none;stroke:#000000;stroke-width:9.75;stroke-linecap:round;stroke-linejoin:miter;stroke-miterlimit:6;stroke-dasharray:none;stroke-opacity:1"
         d="m 40,5200 h 720 v 480 H 40 Z" /><path
         id="path286"
         style="fill:none;stroke:#000000;stroke-width:9.75;stroke-linecap:round;stroke-linejoin:miter;stroke-miterlimit:6;stroke-dasharray:none;stroke-opacity:1"
         d="m 1360,5200 h 1020 v 480 H 1360 Z" /><g
         transform="scale(10)"
         id="g288"><text
           id="text292"
           style="font-variant:normal;font-weight:normal;font-size:12px;font-family:Helvetica;-inkscape-font-specification:Helvetica;writing-mode:lr-tb;fill:#000000;fill-opacity:1;fill-rule:nonzero;stroke:none"
           transform="matrix(1,0,0,-1,651.475,253)"><tspan
             id="tspan290"
             y="0"
             x="0 9.3360004 17.34 20.676001">GPIO</tspan></text>
</g><path
         id="path294"
         style="fill:none;stroke:#000000;stroke-width:9.75;stroke-linecap:round;stroke-linejoin:miter;stroke-miterlimit:6;stroke-dasharray:none;stroke-opacity:1"
         d="m 6280,2440 h 780 v 240 h -780 z" /><path
         id="path296"
         style="fill:none;stroke:#000000;stroke-width:9.75;stroke-linecap:round;stroke-linejoin:miter;stroke-miterlimit:6;stroke-dasharray:none;stroke-opacity:1"
         d="M 5560,2320 H 7300 V 4120 H 5560 Z" /><path
         id="path298"
         style="fill:none;stroke:#000000;stroke-width:9.75;stroke-linecap:round;stroke-linejoin:miter;stroke-miterlimit:6;stroke-dasharray:none;stroke-opacity:1"
         d="M 1360,5440 H 760" /><path
         id="path300"
         style="fill:none;stroke:#000000;stroke-width:9.75;stroke-linecap:round;stroke-linejoin:miter;stroke-miterlimit:6;stroke-dasharray:none;stroke-opacity:1"
         d="M 1840,4060 V 5200" /><path
         id="path302"
         style="fill:none;stroke:#000000;stroke-width:9.75;stroke-linecap:round;stroke-linejoin:miter;stroke-miterlimit:6;stroke-dasharray:none;stroke-opacity:1"
         d="M 1840,1360 V 1120" /><g
         transform="scale(10)"
         id="g304"><text
           id="text308"
           style="font-variant:normal;font-weight:bold;font-size:15px;font-family:Helvetica;-inkscape-font-specification:Helvetica-Bold;writing-mode:lr-tb;fill:#000000;fill-opacity:1;fill-rule:nonzero;stroke:none"
           transform="matrix(1,0,0,-1,585.52,196)"><tspan
             id="tspan306"
             y="0"
             x="0 10.005 14.175 23.34 28.334999 32.505001 40.845001 50.009998 59.174999 64.169998 70.004997 79.169998 83.339996 87.510002 95.849998 101.685 105.855">Slot controller 1</tspan></text>
</g><path
         id="path310"
         style="fill:none;stroke:#000000;stroke-width:9.75;stroke-linecap:round;stroke-linejoin:miter;stroke-miterlimit:6;stroke-dasharray:none;stroke-opacity:1"
         d="m 5560,1840 h 1740 v 360 H 5560 Z" /><g
         transform="scale(10)"
         id="g312"><text
           id="text316"
           style="font-variant:normal;font-weight:normal;font-size:15px;font-family:Helvetica;-inkscape-font-specification:Helvetica;writing-mode:lr-tb;fill:#000000;fill-opacity:1;fill-rule:nonzero;stroke:none"
           transform="matrix(0,1,1,0,244,266.697)"><tspan
             id="tspan314"
             y="0"
             x="0 4.1700001 8.3400002 -120 -115.83 -111.66">......</tspan></text>
<text
           id="text320"
           style="font-variant:normal;font-weight:bold;font-size:15px;font-family:Helvetica;-inkscape-font-specification:Helvetica-Bold;writing-mode:lr-tb;fill:#000000;fill-opacity:1;fill-rule:nonzero;stroke:none"
           transform="matrix(1,0,0,-1,585.52,148)"><tspan
             id="tspan318"
             y="0"
             x="0 10.005 14.175 23.34 28.334999 32.505001 40.845001 50.009998 59.174999 64.169998 70.004997 79.169998 83.339996 87.510002 95.849998 101.685 105.855">Slot controller 2</tspan></text>
</g><path
         id="path322"
         style="fill:none;stroke:#000000;stroke-width:9.75;stroke-linecap:round;stroke-linejoin:miter;stroke-miterlimit:6;stroke-dasharray:none;stroke-opacity:1"
         d="m 5560,1360 h 1740 v 360 H 5560 Z" /><g
         transform="scale(10)"
         id="g324"><text
           id="text328"
           style="font-variant:normal;font-weight:bold;font-size:15px;font-family:Helvetica;-inkscape-font-specification:Helvetica-Bold;writing-mode:lr-tb;fill:#000000;fill-opacity:1;fill-rule:nonzero;stroke:none"
           transform="matrix(1,0,0,-1,585.52,100)"><tspan
             id="tspan326"
             y="0"
             x="0 10.005 14.175 23.34 28.334999 32.505001 40.845001 50.009998 59.174999 64.169998 70.004997 79.169998 83.339996 87.510002 95.849998 101.685 105.855">Slot controller 3</tspan></text>
</g><path
         id="path330"
         style="fill:none;stroke:#000000;stroke-width:9.75;stroke-linecap:round;stroke-linejoin:miter;stroke-miterlimit:6;stroke-dasharray:none;stroke-opacity:1"
         d="m 5560,880 h 1740 v 360 H 5560 Z" /><path
         id="path332"
         style="fill:none;stroke:#000000;stroke-width:9.75;stroke-linecap:round;stroke-linejoin:miter;stroke-miterlimit:6;stroke-dasharray:none;stroke-opacity:1"
         d="M 7840,3640 H 7060" /><path
         id="path334"
         style="fill:none;stroke:#000000;stroke-width:9.75;stroke-linecap:round;stroke-linejoin:miter;stroke-miterlimit:6;stroke-dasharray:none;stroke-opacity:1"
         d="M 7840,3280 H 7060" /><path
         id="path336"
         style="fill:none;stroke:#000000;stroke-width:9.75;stroke-linecap:round;stroke-linejoin:miter;stroke-miterlimit:6;stroke-dasharray:none;stroke-opacity:1"
         d="M 7840,2920 H 7060" /><path
         id="path338"
         style="fill:none;stroke:#000000;stroke-width:9.75;stroke-linecap:round;stroke-linejoin:miter;stroke-miterlimit:6;stroke-dasharray:none;stroke-opacity:1"
         d="m 6040,3640 h 240" /><path
         id="path340"
         style="fill:none;stroke:#000000;stroke-width:9.75;stroke-linecap:round;stroke-linejoin:miter;stroke-miterlimit:6;stroke-dasharray:none;stroke-opacity:1"
         d="M 6280,3280 H 6040" /><path
         id="path342"
         style="fill:none;stroke:#000000;stroke-width:9.75;stroke-linecap:round;stroke-linejoin:miter;stroke-miterlimit:6;stroke-dasharray:none;stroke-opacity:1"
         d="m 6040,2920 h 240" /><path
         id="path344"
         style="fill:none;stroke:#000000;stroke-width:9.75;stroke-linecap:round;stroke-linejoin:miter;stroke-miterlimit:6;stroke-dasharray:none;stroke-opacity:1"
         d="M 6280,2560 H 6040" /><path
         id="path346"
         style="fill:none;stroke:#000000;stroke-width:29.25;stroke-linecap:round;stroke-linejoin:miter;stroke-miterlimit:6;stroke-dasharray:none;stroke-opacity:1"
         d="M 7840,280 V 3760" /><path
         id="path348"
         style="fill:none;stroke:#000000;stroke-width:9.75;stroke-linecap:round;stroke-linejoin:miter;stroke-miterlimit:6;stroke-dasharray:none;stroke-opacity:1"
         d="M 9280,760 H 7840" /><path
         id="path350"
         style="fill:none;stroke:#000000;stroke-width:9.75;stroke-linecap:round;stroke-linejoin:miter;stroke-miterlimit:6;stroke-dasharray:none;stroke-opacity:1"
         d="M 7840,460 H 7180" /><path
         id="path352"
         style="fill:none;stroke:#000000;stroke-width:9.75;stroke-linecap:round;stroke-linejoin:miter;stroke-miterlimit:6;stroke-dasharray:none;stroke-opacity:1"
         d="M 7840,1060 H 7300" /><path
         id="path354"
         style="fill:none;stroke:#000000;stroke-width:9.75;stroke-linecap:round;stroke-linejoin:miter;stroke-miterlimit:6;stroke-dasharray:none;stroke-opacity:1"
         d="M 7840,1540 H 7300" /><path
         id="path356"
         style="fill:none;stroke:#000000;stroke-width:9.75;stroke-linecap:round;stroke-linejoin:miter;stroke-miterlimit:6;stroke-dasharray:none;stroke-opacity:1"
         d="M 7840,2020 H 7300" /><path
         id="path358"
         style="fill:none;stroke:#000000;stroke-width:9.75;stroke-linecap:round;stroke-linejoin:miter;stroke-miterlimit:6;stroke-dasharray:none;stroke-opacity:1"
         d="M 7840,2560 H 7060" /><g
         transform="scale(10)"
         id="g360"><text
           id="text364"
           style="font-variant:normal;font-weight:normal;font-size:15px;font-family:Helvetica;-inkscape-font-specification:Helvetica;writing-mode:lr-tb;fill:#000000;fill-opacity:1;fill-rule:nonzero;stroke:none"
           transform="matrix(0,1,1,0,544,218.697)"><tspan
             id="tspan362"
             y="0"
             x="0 4.1700001 8.3400002">...</tspan></text>
</g><path
         id="path366"
         style="fill:none;stroke:#000000;stroke-width:9.75;stroke-linecap:round;stroke-linejoin:miter;stroke-miterlimit:6;stroke-dasharray:none;stroke-opacity:1"
         d="M 5800,460 H 5320 V 940 H 2320" /><path
         id="path368"
         style="fill:none;stroke:#000000;stroke-width:9.75;stroke-linecap:round;stroke-linejoin:miter;stroke-miterlimit:6;stroke-dasharray:none;stroke-opacity:1"
         d="M 5560,2380 H 5320 V 940" /><path
         id="path370"
         style="fill:none;stroke:#000000;stroke-width:9.75;stroke-linecap:round;stroke-linejoin:miter;stroke-miterlimit:6;stroke-dasharray:none;stroke-opacity:1"
         d="M 5560,2020 H 5320" /><path
         id="path372"
         style="fill:none;stroke:#000000;stroke-width:9.75;stroke-linecap:round;stroke-linejoin:miter;stroke-miterlimit:6;stroke-dasharray:none;stroke-opacity:1"
         d="M 5560,1540 H 5320" /><path
         id="path374"
         style="fill:none;stroke:#000000;stroke-width:9.75;stroke-linecap:round;stroke-linejoin:miter;stroke-miterlimit:6;stroke-dasharray:none;stroke-opacity:1"
         d="M 5560,1060 H 5320" /><path
         id="path376"
         style="fill:none;stroke:#000000;stroke-width:9.75;stroke-linecap:round;stroke-linejoin:miter;stroke-miterlimit:6;stroke-dasharray:none;stroke-opacity:1"
         d="M 1060,160 H 7480 V 5020 H 1060 Z" /><path
         id="path378"
         style="fill:none;stroke:#000000;stroke-width:9.75;stroke-linecap:round;stroke-linejoin:miter;stroke-miterlimit:6;stroke-dasharray:none;stroke-opacity:1"
         d="M 940,40 H 7600 V 5800 H 940 Z" /><path
         id="path380"
         style="fill:#000000;fill-opacity:1;fill-rule:evenodd;stroke:none"
         d="m 3460,4045 c -18.75,-37.5 -18.75,-48.75 -30,-105 -11.25,56.25 -11.25,67.5 -30,105 22.5,-7.5 37.5,-7.5 60,0" /><path
         id="path382"
         style="fill:#000000;fill-opacity:1;fill-rule:evenodd;stroke:none"
         d="m 3730,4945 c -18.75,-37.5 -18.75,-48.75 -30,-105 -11.25,56.25 -11.25,67.5 -30,105 22.5,-7.5 37.5,-7.5 60,0" /><path
         id="path384"
         style="fill:#000000;fill-opacity:1;fill-rule:evenodd;stroke:none"
         d="m 1870,4165 c -18.75,-37.5 -18.75,-48.75 -30,-105 -11.25,56.25 -11.25,67.5 -30,105 22.5,-7.5 37.5,-7.5 60,0" /><path
         id="path386"
         style="fill:#000000;fill-opacity:1;fill-rule:evenodd;stroke:none"
         d="m 1255,5410 c 37.5,18.75 48.75,18.75 105,30 -56.25,11.25 -67.5,11.25 -105,30 7.5,-22.5 7.5,-37.5 0,-60" /><path
         id="path388"
         style="fill:#000000;fill-opacity:1;fill-rule:evenodd;stroke:none"
         d="m 5635,2950 c 37.5,18.75 48.75,18.75 105,30 -56.25,11.25 -67.5,11.25 -105,30 7.5,-22.5 7.5,-37.5 0,-60" /><path
         id="path390"
         style="fill:#000000;fill-opacity:1;fill-rule:evenodd;stroke:none"
         d="m 5635,2470 c 37.5,18.75 48.75,18.75 105,30 -56.25,11.25 -67.5,11.25 -105,30 7.5,-22.5 7.5,-37.5 0,-60" /><path
         id="path392"
         style="fill:#000000;fill-opacity:1;fill-rule:evenodd;stroke:none"
         d="m 5455,1990 c 37.5,18.75 48.75,18.75 105,30 -56.25,11.25 -67.5,11.25 -105,30 7.5,-22.5 7.5,-37.5 0,-60" /><path
         id="path394"
         style="fill:#000000;fill-opacity:1;fill-rule:evenodd;stroke:none"
         d="m 5455,1510 c 37.5,18.75 48.75,18.75 105,30 -56.25,11.25 -67.5,11.25 -105,30 7.5,-22.5 7.5,-37.5 0,-60" /><path
         id="path396"
         style="fill:#000000;fill-opacity:1;fill-rule:evenodd;stroke:none"
         d="m 5455,2350 c 37.5,18.75 48.75,18.75 105,30 -56.25,11.25 -67.5,11.25 -105,30 7.5,-22.5 7.5,-37.5 0,-60" /><path
         id="path398"
         style="fill:#000000;fill-opacity:1;fill-rule:evenodd;stroke:none"
         d="m 5455,1030 c 37.5,18.75 48.75,18.75 105,30 -56.25,11.25 -67.5,11.25 -105,30 7.5,-22.5 7.5,-37.5 0,-60" /><path
         id="path400"
         style="fill:#000000;fill-opacity:1;fill-rule:evenodd;stroke:none"
         d="m 5695,430 c 37.5,18.75 48.75,18.75 105,30 -56.25,11.25 -67.5,11.25 -105,30 7.5,-22.5 7.5,-37.5 0,-60" /><path
         id="path402"
         style="fill:#000000;fill-opacity:1;fill-rule:evenodd;stroke:none"
         d="m 7735,430 c 37.5,18.75 48.75,18.75 105,30 -56.25,11.25 -67.5,11.25 -105,30 7.5,-22.5 7.5,-37.5 0,-60" /><path
         id="path404"
         style="fill:#000000;fill-opacity:1;fill-rule:evenodd;stroke:none"
         d="m 7735,1030 c 37.5,18.75 48.75,18.75 105,30 -56.25,11.25 -67.5,11.25 -105,30 7.5,-22.5 7.5,-37.5 0,-60" /><path
         id="path406"
         style="fill:#000000;fill-opacity:1;fill-rule:evenodd;stroke:none"
         d="m 7735,1510 c 37.5,18.75 48.75,18.75 105,30 -56.25,11.25 -67.5,11.25 -105,30 7.5,-22.5 7.5,-37.5 0,-60" /><path
         id="path408"
         style="fill:#000000;fill-opacity:1;fill-rule:evenodd;stroke:none"
         d="m 7735,1990 c 37.5,18.75 48.75,18.75 105,30 -56.25,11.25 -67.5,11.25 -105,30 7.5,-22.5 7.5,-37.5 0,-60" /><path
         id="path410"
         style="fill:#000000;fill-opacity:1;fill-rule:evenodd;stroke:none"
         d="m 7735,2530 c 37.5,18.75 48.75,18.75 105,30 -56.25,11.25 -67.5,11.25 -105,30 7.5,-22.5 7.5,-37.5 0,-60" /><path
         id="path412"
         style="fill:#000000;fill-opacity:1;fill-rule:evenodd;stroke:none"
         d="m 7735,3250 c 37.5,18.75 48.75,18.75 105,30 -56.25,11.25 -67.5,11.25 -105,30 7.5,-22.5 7.5,-37.5 0,-60" /><path
         id="path414"
         style="fill:#000000;fill-opacity:1;fill-rule:evenodd;stroke:none"
         d="m 9175,730 c 37.5,18.75 48.75,18.75 105,30 -56.25,11.25 -67.5,11.25 -105,30 7.5,-22.5 7.5,-37.5 0,-60" /><path
         id="path416"
         style="fill:#000000;fill-opacity:1;fill-rule:evenodd;stroke:none"
         d="m 7735,3610 c 37.5,18.75 48.75,18.75 105,30 -56.25,11.25 -67.5,11.25 -105,30 7.5,-22.5 7.5,-37.5 0,-60" /><path
         id="path418"
         style="fill:#000000;fill-opacity:1;fill-rule:evenodd;stroke:none"
         d="m 7165,2890 c -37.5,18.75 -48.75,18.75 -105,30 56.25,11.25 67.5,11.25 105,30 -7.5,-22.5 -7.5,-37.5 0,-60" /><path
         id="path420"
         style="fill:#000000;fill-opacity:1;fill-rule:evenodd;stroke:none"
         d="m 7165,2530 c -37.5,18.75 -48.75,18.75 -105,30 56.25,11.25 67.5,11.25 105,30 -7.5,-22.5 -7.5,-37.5 0,-60" /><path
         id="path422"
         style="fill:#000000;fill-opacity:1;fill-rule:evenodd;stroke:none"
         d="m 7165,3610 c -37.5,18.75 -48.75,18.75 -105,30 56.25,11.25 67.5,11.25 105,30 -7.5,-22.5 -7.5,-37.5 0,-60" /><path
         id="path424"
         style="fill:#000000;fill-opacity:1;fill-rule:evenodd;stroke:none"
         d="m 7405,1990 c -37.5,18.75 -48.75,18.75 -105,30 56.25,11.25 67.5,11.25 105,30 -7.5,-22.5 -7.5,-37.5 0,-60" /><path
         id="path426"
         style="fill:#000000;fill-opacity:1;fill-rule:evenodd;stroke:none"
         d="m 7405,1510 c -37.5,18.75 -48.75,18.75 -105,30 56.25,11.25 67.5,11.25 105,30 -7.5,-22.5 -7.5,-37.5 0,-60" /><path
         id="path428"
         style="fill:#000000;fill-opacity:1;fill-rule:evenodd;stroke:none"
         d="m 7405,1030 c -37.5,18.75 -48.75,18.75 -105,30 56.25,11.25 67.5,11.25 105,30 -7.5,-22.5 -7.5,-37.5 0,-60" /><path
         id="path430"
         style="fill:#000000;fill-opacity:1;fill-rule:evenodd;stroke:none"
         d="m 7285,430 c -37.5,18.75 -48.75,18.75 -105,30 56.25,11.25 67.5,11.25 105,30 -7.5,-22.5 -7.5,-37.5 0,-60" /><path
         id="path432"
         style="fill:#000000;fill-opacity:1;fill-rule:evenodd;stroke:none"
         d="m 7945,730 c -37.5,18.75 -48.75,18.75 -105,30 56.25,11.25 67.5,11.25 105,30 -7.5,-22.5 -7.5,-37.5 0,-60" /><path
         id="path434"
         style="fill:#000000;fill-opacity:1;fill-rule:evenodd;stroke:none"
         d="m 1870,1255 c -18.75,37.5 -18.75,48.75 -30,105 -11.25,-56.25 -11.25,-67.5 -30,-105 22.5,7.5 37.5,7.5 60,0" /><path
         id="path436"
         style="fill:#000000;fill-opacity:1;fill-rule:evenodd;stroke:none"
         d="m 2425,1810 c -37.5,18.75 -48.75,18.75 -105,30 56.25,11.25 67.5,11.25 105,30 -7.5,-22.5 -7.5,-37.5 0,-60" /><path
         id="path438"
         style="fill:#000000;fill-opacity:1;fill-rule:evenodd;stroke:none"
         d="m 1870,5095 c -18.75,37.5 -18.75,48.75 -30,105 -11.25,-56.25 -11.25,-67.5 -30,-105 22.5,7.5 37.5,7.5 60,0" /><path
         id="path440"
         style="fill:#000000;fill-opacity:1;fill-rule:evenodd;stroke:none"
         d="m 2425,3430 c -37.5,18.75 -48.75,18.75 -105,30 56.25,11.25 67.5,11.25 105,30 -7.5,-22.5 -7.5,-37.5 0,-60" /><path
         id="path442"
         style="fill:#000000;fill-opacity:1;fill-rule:evenodd;stroke:none"
         d="m 3970,3715 c -18.75,37.5 -18.75,48.75 -30,105 -11.25,-56.25 -11.25,-67.5 -30,-105 22.5,7.5 37.5,7.5 60,0" /><path
         id="path444"
         style="fill:#000000;fill-opacity:1;fill-rule:evenodd;stroke:none"
         d="m 4030,3715 c -18.75,37.5 -18.75,48.75 -30,105 -11.25,-56.25 -11.25,-67.5 -30,-105 22.5,7.5 37.5,7.5 60,0" /><path
         id="path446"
         style="fill:#000000;fill-opacity:1;fill-rule:evenodd;stroke:none"
         d="m 4000,4315 c -18.75,37.5 -18.75,48.75 -30,105 -11.25,-56.25 -11.25,-67.5 -30,-105 22.5,7.5 37.5,7.5 60,0" /><path
         id="path448"
         style="fill:#000000;fill-opacity:1;fill-rule:evenodd;stroke:none"
         d="m 865,5410 c -37.5,18.75 -48.75,18.75 -105,30 56.25,11.25 67.5,11.25 105,30 -7.5,-22.5 -7.5,-37.5 0,-60" /><path
         id="path450"
         style="fill:#000000;fill-opacity:1;fill-rule:evenodd;stroke:none"
         d="m 3730,5155 c -18.75,37.5 -18.75,48.75 -30,105 -11.25,-56.25 -11.25,-67.5 -30,-105 22.5,7.5 37.5,7.5 60,0" /><path
         id="path452"
         style="fill:none;stroke:#000000;stroke-width:9.75;stroke-linecap:round;stroke-linejoin:miter;stroke-miterlimit:6;stroke-dasharray:none;stroke-opacity:1"
         d="m 1360,940 h -180 v 3540 h 360 v 720" /><path
         id="path454"
         style="fill:#000000;fill-opacity:1;fill-rule:evenodd;stroke:none"
         d="m 1255,910 c 37.5,18.75 48.75,18.75 105,30 -56.25,11.25 -67.5,11.25 -105,30 7.5,-22.5 7.5,-37.5 0,-60" /></g></g></svg>