<?xml version="1.0" encoding="UTF-8" standalone="no"?>
<svg
   xmlns:dc="http://purl.org/dc/elements/1.1/"
   xmlns:cc="http://creativecommons.org/ns#"
   xmlns:rdf="http://www.w3.org/1999/02/22-rdf-syntax-ns#"
   xmlns:svg="http://www.w3.org/2000/svg"
   xmlns="http://www.w3.org/2000/svg"
   viewBox="0 0 1181.3333 894.66669"
   height="894.66669"
   width="1181.3333"
   xml:space="preserve"
   id="svg2"
   version="1.1"><metadata
     id="metadata8"><rdf:RDF><cc:Work
         rdf:about=""><dc:format>image/svg+xml</dc:format><dc:type
           rdf:resource="http://purl.org/dc/dcmitype/StillImage" /></cc:Work></rdf:RDF></metadata><defs
     id="defs6" /><g
     transform="matrix(1.3333333,0,0,-1.3333333,0,894.66667)"
     id="g10"><g
       transform="scale(0.1)"
       id="g12"><path
         id="path14"
         style="fill:#b9efc3;fill-opacity:1;fill-rule:evenodd;stroke:none"
         d="M 1120,4840 H 2800 V 5860 H 1120 Z" /><path
         id="path16"
         style="fill:none;stroke:#b9efc3;stroke-width:9.75;stroke-linecap:round;stroke-linejoin:miter;stroke-miterlimit:6;stroke-dasharray:none;stroke-opacity:1"
         d="M 1120,4840 H 2800 V 5860 H 1120 Z" /><path
         id="path18"
         style="fill:#b9efc3;fill-opacity:1;fill-rule:evenodd;stroke:none"
         d="m 40,1840 h 780 v 900 H 40 Z" /><path
         id="path20"
         style="fill:none;stroke:#b9efc3;stroke-width:9.75;stroke-linecap:round;stroke-linejoin:miter;stroke-miterlimit:6;stroke-dasharray:none;stroke-opacity:1"
         d="m 40,1840 h 780 v 900 H 40 Z" /><path
         id="path22"
         style="fill:#b9efc3;fill-opacity:1;fill-rule:evenodd;stroke:none"
         d="M 1780,40 H 4360 V 1300 H 1780 Z" /><path
         id="path24"
         style="fill:none;stroke:#b9efc3;stroke-width:9.75;stroke-linecap:round;stroke-linejoin:miter;stroke-miterlimit:6;stroke-dasharray:none;stroke-opacity:1"
         d="M 1780,40 H 4360 V 1300 H 1780 Z" /><path
         id="path26"
         style="fill:#b9efc3;fill-opacity:1;fill-rule:evenodd;stroke:none"
         d="M 6580,3220 H 8020 V 4780 H 6580 Z" /><path
         id="path28"
         style="fill:none;stroke:#b9efc3;stroke-width:9.75;stroke-linecap:round;stroke-linejoin:miter;stroke-miterlimit:6;stroke-dasharray:none;stroke-opacity:1"
         d="M 6580,3220 H 8020 V 4780 H 6580 Z" /><path
         id="path30"
         style="fill:#b9efc3;fill-opacity:1;fill-rule:evenodd;stroke:none"
         d="m 6580,2620 h 1440 v 480 H 6580 Z" /><path
         id="path32"
         style="fill:none;stroke:#b9efc3;stroke-width:9.75;stroke-linecap:round;stroke-linejoin:miter;stroke-miterlimit:6;stroke-dasharray:none;stroke-opacity:1"
         d="m 6580,2620 h 1440 v 480 H 6580 Z" /><path
         id="path34"
         style="fill:#b9efc3;fill-opacity:1;fill-rule:evenodd;stroke:none"
         d="m 6580,2020 h 1440 v 480 H 6580 Z" /><path
         id="path36"
         style="fill:none;stroke:#b9efc3;stroke-width:9.75;stroke-linecap:round;stroke-linejoin:miter;stroke-miterlimit:6;stroke-dasharray:none;stroke-opacity:1"
         d="m 6580,2020 h 1440 v 480 H 6580 Z" /><path
         id="path38"
         style="fill:#b9efc3;fill-opacity:1;fill-rule:evenodd;stroke:none"
         d="m 6580,1420 h 1440 v 480 H 6580 Z" /><path
         id="path40"
         style="fill:none;stroke:#b9efc3;stroke-width:9.75;stroke-linecap:round;stroke-linejoin:miter;stroke-miterlimit:6;stroke-dasharray:none;stroke-opacity:1"
         d="m 6580,1420 h 1440 v 480 H 6580 Z" /><path
         id="path42"
         style="fill:#b9efc3;fill-opacity:1;fill-rule:evenodd;stroke:none"
         d="M 1120,1480 H 5320 V 4660 H 1120 Z" /><path
         id="path44"
         style="fill:none;stroke:#b9efc3;stroke-width:9.75;stroke-linecap:round;stroke-linejoin:miter;stroke-miterlimit:6;stroke-dasharray:none;stroke-opacity:1"
         d="M 1120,1480 H 5320 V 4660 H 1120 Z" /><path
         id="path46"
         style="fill:#cccccc;fill-opacity:1;fill-rule:evenodd;stroke:none"
         d="m 1480,2920 h 1440 v 720 H 1480 Z" /><path
         id="path48"
         style="fill:none;stroke:#cccccc;stroke-width:9.75;stroke-linecap:round;stroke-linejoin:miter;stroke-miterlimit:6;stroke-dasharray:none;stroke-opacity:1"
         d="m 1480,2920 h 1440 v 720 H 1480 Z" /><path
         id="path50"
         style="fill:#cccccc;fill-opacity:1;fill-rule:evenodd;stroke:none"
         d="m 1360,5020 h 1260 v 480 H 1360 Z" /><path
         id="path52"
         style="fill:none;stroke:#cccccc;stroke-width:9.75;stroke-linecap:round;stroke-linejoin:miter;stroke-miterlimit:6;stroke-dasharray:none;stroke-opacity:1"
         d="m 1360,5020 h 1260 v 480 H 1360 Z" /><path
         id="path54"
         style="fill:#cccccc;fill-opacity:1;fill-rule:evenodd;stroke:none"
         d="m 1960,520 h 480 v 300 h -480 z" /><path
         id="path56"
         style="fill:none;stroke:#cccccc;stroke-width:9.75;stroke-linecap:round;stroke-linejoin:miter;stroke-miterlimit:6;stroke-dasharray:none;stroke-opacity:1"
         d="m 1960,520 h 480 v 300 h -480 z" /><path
         id="path58"
         style="fill:#cccccc;fill-opacity:1;fill-rule:evenodd;stroke:none"
         d="M 2560,640 H 3640 V 940 H 2560 Z" /><path
         id="path60"
         style="fill:none;stroke:#cccccc;stroke-width:9.75;stroke-linecap:round;stroke-linejoin:miter;stroke-miterlimit:6;stroke-dasharray:none;stroke-opacity:1"
         d="M 2560,640 H 3640 V 940 H 2560 Z" /><path
         id="path62"
         style="fill:#cccccc;fill-opacity:1;fill-rule:evenodd;stroke:none"
         d="M 2560,280 H 3640 V 580 H 2560 Z" /><path
         id="path64"
         style="fill:none;stroke:#cccccc;stroke-width:9.75;stroke-linecap:round;stroke-linejoin:miter;stroke-miterlimit:6;stroke-dasharray:none;stroke-opacity:1"
         d="M 2560,280 H 3640 V 580 H 2560 Z" /><path
         id="path66"
         style="fill:#cccccc;fill-opacity:1;fill-rule:evenodd;stroke:none"
         d="M 3940,880 V 340 l -120,-60 v 660" /><path
         id="path68"
         style="fill:none;stroke:#cccccc;stroke-width:9.75;stroke-linecap:round;stroke-linejoin:miter;stroke-miterlimit:6;stroke-dasharray:none;stroke-opacity:1"
         d="M 3940,880 V 340 l -120,-60 v 660" /><path
         id="path70"
         style="fill:#cccccc;fill-opacity:1;fill-rule:evenodd;stroke:none"
         d="m 6820,3760 h 960 v 600 h -960 z" /><path
         id="path72"
         style="fill:none;stroke:#cccccc;stroke-width:9.75;stroke-linecap:round;stroke-linejoin:miter;stroke-miterlimit:6;stroke-dasharray:none;stroke-opacity:1"
         d="m 6820,3760 h 960 v 600 h -960 z" /><path
         id="path74"
         style="fill:#cccccc;fill-opacity:1;fill-rule:evenodd;stroke:none"
         d="m 7060,3340 h 600 v 300 h -600 z" /><path
         id="path76"
         style="fill:none;stroke:#cccccc;stroke-width:9.75;stroke-linecap:round;stroke-linejoin:miter;stroke-miterlimit:6;stroke-dasharray:none;stroke-opacity:1"
         d="m 7060,3340 h 600 v 300 h -600 z" /><g
         transform="scale(10)"
         id="g78"><text
           id="text82"
           style="font-variant:normal;font-weight:bold;font-size:15px;font-family:Helvetica;-inkscape-font-specification:Helvetica-Bold;writing-mode:lr-tb;fill:#000000;fill-opacity:1;fill-rule:nonzero;stroke:none"
           transform="matrix(1,0,0,-1,699.011,460)"><tspan
             id="tspan80"
             y="0"
             x="0 12.495 21.66 30.825001 39.990002 44.16 52.5 56.669998">Module 0</tspan></text>
</g><path
         id="path84"
         style="fill:none;stroke:#000000;stroke-width:9.75;stroke-linecap:round;stroke-linejoin:miter;stroke-miterlimit:6;stroke-dasharray:none;stroke-opacity:1"
         d="M 6580,3220 H 8020 V 4780 H 6580 Z" /><g
         transform="scale(10)"
         id="g86"><text
           id="text94"
           style="font-variant:normal;font-weight:normal;font-size:12px;font-family:Helvetica;-inkscape-font-specification:Helvetica;writing-mode:lr-tb;fill:#000000;fill-opacity:1;fill-rule:nonzero;stroke:none"
           transform="matrix(1,0,0,-1,554.808,448)"><tspan
             id="tspan88"
             y="0"
             x="0 3.336 10.008 18.011999 21.348 25.344 32.015999 36.012001 42.012001 48.683998">I2S (8-ch)</tspan><tspan
             id="tspan90"
             y="24"
             x="0.62031299 8.6243134 16.628313">SPI</tspan><tspan
             id="tspan92"
             y="48"
             x="0.66718799 10.003188 18.007189 21.343187">GPIO</tspan></text>
<text
           id="text102"
           style="font-variant:normal;font-weight:bold;font-size:15px;font-family:Helvetica;-inkscape-font-specification:Helvetica-Bold;writing-mode:lr-tb;fill:#000000;fill-opacity:1;fill-rule:nonzero;stroke:none"
           transform="matrix(1,0,0,-1,26.863188,250)"><tspan
             id="tspan96"
             y="0"
             x="0 10.005 20.01">PSU</tspan><tspan
             id="tspan98"
             y="-192"
             x="227.909 238.739 247.07899 255.41901 263.759 272.92401 277.09399 285.43399 294.599">Backplane</tspan><tspan
             id="tspan100"
             y="-312"
             x="144.47771 155.30769 163.64771 169.4827 175.3177 179.4877 187.8277">Carrier</tspan></text>
<text
           id="text106"
           style="font-variant:normal;font-weight:normal;font-size:15px;font-family:Helvetica;-inkscape-font-specification:Helvetica;writing-mode:lr-tb;fill:#000000;fill-opacity:1;fill-rule:nonzero;stroke:none"
           transform="matrix(1,0,0,-1,147.68619,658)"><tspan
             id="tspan104"
             y="0"
             x="0 9.165 17.504999 21.674999 29.174999 37.514999 50.009998 58.349998 66.690002 70.860001 79.199997 84.195">To computer,</tspan></text>
<text
           id="text120"
           style="font-variant:normal;font-weight:normal;font-size:12px;font-family:Helvetica;-inkscape-font-specification:Helvetica;writing-mode:lr-tb;fill:#000000;fill-opacity:1;fill-rule:nonzero;stroke:none"
           transform="matrix(1,0,0,-1,698.93919,400)"><tspan
             id="tspan108"
             y="0"
             x="0 8.6639996 16.667999 25.332001 28.667999 36.672001 45.335999">DAC/ADC</tspan><tspan
             id="tspan110"
             y="54"
             x="17.951599 26.615601 33.287601 39.959599">Regs</tspan><tspan
             id="tspan112"
             y="180"
             x="-671.53442 -664.52643 -657.85437 -654.51837">+7 V</tspan><tspan
             id="tspan114"
             y="198"
             x="-683.53442 -676.52643 -673.19043 -669.1944 -665.8584 -659.1864 -652.5144 -649.17841">+/- 22 V</tspan><tspan
             id="tspan116"
             y="24"
             x="-144.0484 -135.3844 -128.7124 -122.0404 -118.7044 -115.3684 -109.3684 -102.6964 -96.024399 -89.352402 -86.6884 -84.024399 -77.352402">Reg. supplies</tspan><tspan
             id="tspan118"
             y="48"
             x="-143.95152 -135.28752 -128.61552 -124.61952 -117.94753 -111.27553">Unreg.</tspan></text>
<text
           id="text124"
           style="font-variant:normal;font-weight:normal;font-size:15px;font-family:Helvetica;-inkscape-font-specification:Helvetica;writing-mode:lr-tb;fill:#000000;fill-opacity:1;fill-rule:nonzero;stroke:none"
           transform="matrix(1,0,0,-1,27.745663,328)"><tspan
             id="tspan122"
             y="0"
             x="0 10.005 20.834999 25.004999 29.174999">AC In</tspan></text>
<text
           id="text128"
           style="font-variant:normal;font-weight:normal;font-size:12px;font-family:Helvetica;-inkscape-font-specification:Helvetica;writing-mode:lr-tb;fill:#000000;fill-opacity:1;fill-rule:nonzero;stroke:none"
           transform="matrix(1,0,0,-1,152.93966,532)"><tspan
             id="tspan126"
             y="0"
             x="0 8.6639996 11.328 18 20.664 24 30.672001 33.335999 36.672001 39.335999 46.007999 49.344002 56.015999 60.012001 63.348 70.019997 76.019997">Digital interface</tspan></text>
</g><path
         id="path130"
         style="fill:none;stroke:#000000;stroke-width:9.75;stroke-linecap:round;stroke-linejoin:miter;stroke-miterlimit:6;stroke-dasharray:none;stroke-opacity:1"
         d="m 6820,3760 h 960 v 600 h -960 z" /><path
         id="path132"
         style="fill:none;stroke:#000000;stroke-width:9.75;stroke-linecap:round;stroke-linejoin:miter;stroke-miterlimit:6;stroke-dasharray:none;stroke-opacity:1"
         d="m 7060,3340 h 600 v 300 h -600 z" /><g
         transform="scale(10)"
         id="g134"><text
           id="text138"
           style="font-variant:normal;font-weight:normal;font-size:15px;font-family:Helvetica;-inkscape-font-specification:Helvetica;writing-mode:lr-tb;fill:#000000;fill-opacity:1;fill-rule:nonzero;stroke:none"
           transform="matrix(1,0,0,-1,837.745,400)"><tspan
             id="tspan136"
             y="0"
             x="0 10.005 18.344999 26.684999 30.014999 38.355">Analog</tspan></text>
</g><path
         id="path140"
         style="fill:none;stroke:#000000;stroke-width:9.75;stroke-linecap:round;stroke-linejoin:miter;stroke-miterlimit:6;stroke-dasharray:none;stroke-opacity:1"
         d="m 40,1840 h 780 v 900 H 40 Z" /><path
         id="path142"
         style="fill:none;stroke:#000000;stroke-width:9.75;stroke-linecap:round;stroke-linejoin:miter;stroke-miterlimit:6;stroke-dasharray:39, 39;stroke-dashoffset:0;stroke-opacity:1"
         d="M 3820,3820 V 4840" /><path
         id="path144"
         style="fill:none;stroke:#000000;stroke-width:9.75;stroke-linecap:round;stroke-linejoin:miter;stroke-miterlimit:6;stroke-dasharray:none;stroke-opacity:1"
         d="M 1120,4840 H 2800 V 5860 H 1120 Z" /><path
         id="path146"
         style="fill:none;stroke:#000000;stroke-width:9.75;stroke-linecap:round;stroke-linejoin:miter;stroke-miterlimit:6;stroke-dasharray:none;stroke-opacity:1"
         d="m 1360,5020 h 1260 v 480 H 1360 Z" /><g
         transform="scale(10)"
         id="g148"><text
           id="text152"
           style="font-variant:normal;font-weight:normal;font-size:12px;font-family:Helvetica;-inkscape-font-specification:Helvetica;writing-mode:lr-tb;fill:#000000;fill-opacity:1;fill-rule:nonzero;stroke:none"
           transform="matrix(1,0,0,-1,171.5,514)"><tspan
             id="tspan150"
             y="0"
             x="0 6.6719999 13.344 20.016001 23.351999 32.015999 40.02">and DSP</tspan></text>
<text
           id="text156"
           style="font-variant:normal;font-weight:bold;font-size:15px;font-family:Helvetica;-inkscape-font-specification:Helvetica-Bold;writing-mode:lr-tb;fill:#000000;fill-opacity:1;fill-rule:nonzero;stroke:none"
           transform="matrix(1,0,0,-1,693.011,280)"><tspan
             id="tspan154"
             y="0"
             x="0 12.495 21.66 30.825001 39.990002 44.16 52.5 56.669998">Module 1</tspan></text>
</g><path
         id="path158"
         style="fill:none;stroke:#000000;stroke-width:9.75;stroke-linecap:round;stroke-linejoin:miter;stroke-miterlimit:6;stroke-dasharray:none;stroke-opacity:1"
         d="m 6580,2620 h 1440 v 480 H 6580 Z" /><g
         transform="scale(10)"
         id="g160"><text
           id="text168"
           style="font-variant:normal;font-weight:normal;font-size:15px;font-family:Helvetica;-inkscape-font-specification:Helvetica;writing-mode:lr-tb;fill:#000000;fill-opacity:1;fill-rule:nonzero;stroke:none"
           transform="matrix(1,0,0,-1,842.502,382)"><tspan
             id="tspan162"
             y="0"
             x="0 4.1700001 8.3400002">I/O</tspan><tspan
             id="tspan164"
             y="-258"
             x="-719.63898 -708.80902 -698.80402 -688.79901 -684.62903 -680.45898 -672.11902 -667.12402 -662.95398 -655.45398 -651.284 -646.289 -637.94897 -629.60901 -617.11401 -613.784 -605.44397">NAS, or streaming</tspan><tspan
             id="tspan166"
             y="-240"
             x="-689.01093 -681.51093 -673.1709 -668.1759 -660.6759 -657.34589 -649.84589 -641.50592">services</tspan></text>
<text
           id="text172"
           style="font-variant:normal;font-weight:bold;font-size:15px;font-family:Helvetica;-inkscape-font-specification:Helvetica-Bold;writing-mode:lr-tb;fill:#000000;fill-opacity:1;fill-rule:nonzero;stroke:none"
           transform="matrix(1,0,0,-1,693.0111,220)"><tspan
             id="tspan170"
             y="0"
             x="0 12.495 21.66 30.825001 39.990002 44.16 52.5 56.669998">Module 2</tspan></text>
</g><path
         id="path174"
         style="fill:none;stroke:#000000;stroke-width:9.75;stroke-linecap:round;stroke-linejoin:miter;stroke-miterlimit:6;stroke-dasharray:none;stroke-opacity:1"
         d="m 6580,2020 h 1440 v 480 H 6580 Z" /><g
         transform="scale(10)"
         id="g176"><text
           id="text180"
           style="font-variant:normal;font-weight:bold;font-size:15px;font-family:Helvetica;-inkscape-font-specification:Helvetica-Bold;writing-mode:lr-tb;fill:#000000;fill-opacity:1;fill-rule:nonzero;stroke:none"
           transform="matrix(1,0,0,-1,693.011,160)"><tspan
             id="tspan178"
             y="0"
             x="0 12.495 21.66 30.825001 39.990002 44.16 52.5 56.669998">Module 3</tspan></text>
</g><path
         id="path182"
         style="fill:none;stroke:#000000;stroke-width:9.75;stroke-linecap:round;stroke-linejoin:miter;stroke-miterlimit:6;stroke-dasharray:none;stroke-opacity:1"
         d="m 6580,1420 h 1440 v 480 H 6580 Z" /><g
         transform="scale(10)"
         id="g184"><text
           id="text188"
           style="font-variant:normal;font-weight:normal;font-size:15px;font-family:Helvetica;-inkscape-font-specification:Helvetica;writing-mode:lr-tb;fill:#000000;fill-opacity:1;fill-rule:nonzero;stroke:none"
           transform="matrix(1,0,0,-1,165.341,346)"><tspan
             id="tspan186"
             y="0"
             x="0 11.67 15 23.34 31.68 40.02 43.349998 47.52 52.514999 60.855 69.195 77.535004 80.864998 89.205002 93.375 101.715 106.71">Global regulators</tspan></text>
<text
           id="text194"
           style="font-variant:normal;font-weight:normal;font-size:12px;font-family:Helvetica;-inkscape-font-specification:Helvetica;writing-mode:lr-tb;fill:#000000;fill-opacity:1;fill-rule:nonzero;stroke:none"
           transform="matrix(1,0,0,-1,183.4051,322)"><tspan
             id="tspan190"
             y="0"
             x="0 7.0079999 13.68 17.016001 54 61.007999 67.68 71.015999 77.688004 81.024002">+5 V+3.3 V</tspan><tspan
             id="tspan192"
             y="18"
             x="12 19.007999 22.344 26.34 29.676001 36.348 43.02 46.355999">+/- 15 V</tspan></text>
</g><path
         id="path196"
         style="fill:none;stroke:#000000;stroke-width:9.75;stroke-linecap:round;stroke-linejoin:miter;stroke-miterlimit:6;stroke-dasharray:none;stroke-opacity:1"
         d="m 1480,2920 h 1440 v 720 H 1480 Z" /><path
         id="path198"
         style="fill:none;stroke:#000000;stroke-width:9.75;stroke-linecap:round;stroke-linejoin:miter;stroke-miterlimit:6;stroke-dasharray:none;stroke-opacity:1"
         d="M 1120,1480 H 5320 V 4660 H 1120 Z" /><g
         transform="scale(10)"
         id="g200"><text
           id="text204"
           style="font-variant:normal;font-weight:bold;font-size:15px;font-family:Helvetica;-inkscape-font-specification:Helvetica-Bold;writing-mode:lr-tb;fill:#000000;fill-opacity:1;fill-rule:nonzero;stroke:none"
           transform="matrix(1,0,0,-1,261.341,106)"><tspan
             id="tspan202"
             y="0"
             x="0 10.83 15 24.165001 32.505001 40.845001 45.014999 53.355 62.52 71.684998 77.519997 85.860001">Clock source</tspan></text>
<text
           id="text212"
           style="font-variant:normal;font-weight:normal;font-size:12px;font-family:Helvetica;-inkscape-font-specification:Helvetica;writing-mode:lr-tb;fill:#000000;fill-opacity:1;fill-rule:nonzero;stroke:none"
           transform="matrix(1,0,0,-1,206.891,64)"><tspan
             id="tspan206"
             y="0"
             x="0 8.6639996 15.336">Reg</tspan><tspan
             id="tspan208"
             y="-12"
             x="54.7047 61.376701 68.048698 71.384697 78.056702 84.728699 91.400703 98.072701 101.4087 111.4047 120.0687">22.5792 MHz</tspan><tspan
             id="tspan210"
             y="24"
             x="54.7047 61.376701 68.048698 71.384697 78.056702 84.728699 91.400703 94.736702 104.7327 113.3967">24.576 MHz</tspan></text>
</g><path
         id="path214"
         style="fill:none;stroke:#000000;stroke-width:9.75;stroke-linecap:round;stroke-linejoin:miter;stroke-miterlimit:6;stroke-dasharray:none;stroke-opacity:1"
         d="m 1960,520 h 480 v 300 h -480 z" /><path
         id="path216"
         style="fill:none;stroke:#000000;stroke-width:9.75;stroke-linecap:round;stroke-linejoin:miter;stroke-miterlimit:6;stroke-dasharray:none;stroke-opacity:1"
         d="M 2560,640 H 3640 V 940 H 2560 Z" /><path
         id="path218"
         style="fill:none;stroke:#000000;stroke-width:9.75;stroke-linecap:round;stroke-linejoin:miter;stroke-miterlimit:6;stroke-dasharray:none;stroke-opacity:1"
         d="M 2560,280 H 3640 V 580 H 2560 Z" /><path
         id="path220"
         style="fill:none;stroke:#000000;stroke-width:9.75;stroke-linecap:round;stroke-linejoin:miter;stroke-miterlimit:6;stroke-dasharray:none;stroke-opacity:1"
         d="m 3820,940 120,-60 V 340 l -120,-60 v 660" /><path
         id="path222"
         style="fill:none;stroke:#000000;stroke-width:9.75;stroke-linecap:round;stroke-linejoin:miter;stroke-miterlimit:6;stroke-dasharray:none;stroke-opacity:1"
         d="M 3820,760 H 3640" /><path
         id="path224"
         style="fill:none;stroke:#000000;stroke-width:9.75;stroke-linecap:round;stroke-linejoin:miter;stroke-miterlimit:6;stroke-dasharray:none;stroke-opacity:1"
         d="M 3820,460 H 3640" /><path
         id="path226"
         style="fill:none;stroke:#000000;stroke-width:9.75;stroke-linecap:round;stroke-linejoin:miter;stroke-miterlimit:6;stroke-dasharray:none;stroke-opacity:1"
         d="M 4120,1240 V 580 h -180" /><path
         id="path228"
         style="fill:none;stroke:#000000;stroke-width:9.75;stroke-linecap:round;stroke-linejoin:miter;stroke-miterlimit:6;stroke-dasharray:none;stroke-opacity:1"
         d="M 1780,40 H 4360 V 1300 H 1780 Z" /><path
         id="path230"
         style="fill:none;stroke:#000000;stroke-width:9.75;stroke-linecap:round;stroke-linejoin:miter;stroke-miterlimit:6;stroke-dasharray:none;stroke-opacity:1"
         d="M 4540,4120 H 1900 v 720" /><path
         id="path232"
         style="fill:none;stroke:#000000;stroke-width:9.75;stroke-linecap:round;stroke-linejoin:miter;stroke-miterlimit:6;stroke-dasharray:none;stroke-opacity:1"
         d="M 4540,4420 H 6580" /><path
         id="path234"
         style="fill:none;stroke:#000000;stroke-width:9.75;stroke-linecap:round;stroke-linejoin:miter;stroke-miterlimit:6;stroke-dasharray:none;stroke-opacity:1"
         d="M 4540,4180 H 6580" /><path
         id="path236"
         style="fill:none;stroke:#000000;stroke-width:9.75;stroke-linecap:round;stroke-linejoin:miter;stroke-miterlimit:6;stroke-dasharray:none;stroke-opacity:1"
         d="M 4540,3940 H 6580" /><path
         id="path238"
         style="fill:none;stroke:#000000;stroke-width:9.75;stroke-linecap:round;stroke-linejoin:miter;stroke-miterlimit:6;stroke-dasharray:none;stroke-opacity:1"
         d="M 4960,3700 H 6580" /><path
         id="path240"
         style="fill:none;stroke:#000000;stroke-width:9.75;stroke-linecap:round;stroke-linejoin:miter;stroke-miterlimit:6;stroke-dasharray:none;stroke-opacity:1"
         d="M 4960,3460 H 6580" /><path
         id="path242"
         style="fill:none;stroke:#0000ff;stroke-width:29.25;stroke-linecap:round;stroke-linejoin:miter;stroke-miterlimit:6;stroke-dasharray:none;stroke-opacity:1"
         d="M 4540,1600 V 4540" /><path
         id="path244"
         style="fill:none;stroke:#000000;stroke-width:9.75;stroke-linecap:round;stroke-linejoin:miter;stroke-miterlimit:6;stroke-dasharray:none;stroke-opacity:1"
         d="M 4540,1900 H 4120 V 1240" /><path
         id="path246"
         style="fill:none;stroke:#000000;stroke-width:9.75;stroke-linecap:round;stroke-linejoin:miter;stroke-miterlimit:6;stroke-dasharray:none;stroke-opacity:1"
         d="M 4540,2860 H 6580" /><path
         id="path248"
         style="fill:none;stroke:#000000;stroke-width:9.75;stroke-linecap:round;stroke-linejoin:miter;stroke-miterlimit:6;stroke-dasharray:none;stroke-opacity:1"
         d="M 4540,2260 H 6580" /><path
         id="path250"
         style="fill:none;stroke:#000000;stroke-width:9.75;stroke-linecap:round;stroke-linejoin:miter;stroke-miterlimit:6;stroke-dasharray:none;stroke-opacity:1"
         d="M 4540,1660 H 6580" /><path
         id="path252"
         style="fill:none;stroke:#000000;stroke-width:9.75;stroke-linecap:round;stroke-linejoin:miter;stroke-miterlimit:6;stroke-dasharray:none;stroke-opacity:1"
         d="m 460,2740 v 480" /><path
         id="path254"
         style="fill:none;stroke:#000000;stroke-width:9.75;stroke-linecap:round;stroke-linejoin:miter;stroke-miterlimit:6;stroke-dasharray:none;stroke-opacity:1"
         d="m 1900,5860 v 300" /><path
         id="path256"
         style="fill:none;stroke:#cd0000;stroke-width:29.25;stroke-linecap:round;stroke-linejoin:miter;stroke-miterlimit:6;stroke-dasharray:none;stroke-opacity:1"
         d="M 4960,1960 V 3820" /><path
         id="path258"
         style="fill:none;stroke:#000000;stroke-width:9.75;stroke-linecap:round;stroke-linejoin:miter;stroke-miterlimit:6;stroke-dasharray:none;stroke-opacity:1"
         d="M 820,2080 H 4960" /><path
         id="path260"
         style="fill:none;stroke:#000000;stroke-width:9.75;stroke-linecap:round;stroke-linejoin:miter;stroke-miterlimit:6;stroke-dasharray:none;stroke-opacity:1"
         d="m 1720,2080 v 840" /><path
         id="path262"
         style="fill:none;stroke:#000000;stroke-width:9.75;stroke-linecap:round;stroke-linejoin:miter;stroke-miterlimit:6;stroke-dasharray:none;stroke-opacity:1"
         d="m 2440,2440 v 480" /><path
         id="path264"
         style="fill:none;stroke:#000000;stroke-width:9.75;stroke-linecap:round;stroke-linejoin:miter;stroke-miterlimit:6;stroke-dasharray:none;stroke-opacity:1"
         d="M 4960,2440 H 2440" /><path
         id="path266"
         style="fill:none;stroke:#000000;stroke-width:9.75;stroke-linecap:round;stroke-linejoin:miter;stroke-miterlimit:6;stroke-dasharray:none;stroke-opacity:1"
         d="M 8320,4000 H 7780" /><g
         transform="scale(10)"
         id="g268"><text
           id="text272"
           style="font-variant:normal;font-weight:normal;font-size:15px;font-family:Helvetica;-inkscape-font-specification:Helvetica;writing-mode:lr-tb;fill:#0000ff;fill-opacity:1;fill-rule:nonzero;stroke:none"
           transform="matrix(0,1,1,0,454,476.667)"><tspan
             id="tspan270"
             y="0"
             x="0 10.83 14.16 22.5 25.83 30 38.34">Digital</tspan></text>
</g><g
         transform="scale(10)"
         id="g274"><text
           id="text278"
           style="font-variant:normal;font-weight:normal;font-size:15px;font-family:Helvetica;-inkscape-font-specification:Helvetica;writing-mode:lr-tb;fill:#cd0000;fill-opacity:1;fill-rule:nonzero;stroke:none"
           transform="matrix(0,1,1,0,502,476.638)"><tspan
             id="tspan276"
             y="0"
             x="0 10.005 18.344999 29.174999 37.514999">Power</tspan></text>
</g><path
         id="path280"
         style="fill:#000000;fill-opacity:1;fill-rule:evenodd;stroke:none"
         d="m 4645,4390 c -37.5,18.75 -48.75,18.75 -105,30 56.25,11.25 67.5,11.25 105,30 -7.5,-22.5 -7.5,-37.5 0,-60" /><path
         id="path282"
         style="fill:#000000;fill-opacity:1;fill-rule:evenodd;stroke:none"
         d="m 4645,4150 c -37.5,18.75 -48.75,18.75 -105,30 56.25,11.25 67.5,11.25 105,30 -7.5,-22.5 -7.5,-37.5 0,-60" /><path
         id="path284"
         style="fill:#000000;fill-opacity:1;fill-rule:evenodd;stroke:none"
         d="m 4645,3910 c -37.5,18.75 -48.75,18.75 -105,30 56.25,11.25 67.5,11.25 105,30 -7.5,-22.5 -7.5,-37.5 0,-60" /><path
         id="path286"
         style="fill:#000000;fill-opacity:1;fill-rule:evenodd;stroke:none"
         d="m 4645,2830 c -37.5,18.75 -48.75,18.75 -105,30 56.25,11.25 67.5,11.25 105,30 -7.5,-22.5 -7.5,-37.5 0,-60" /><path
         id="path288"
         style="fill:#000000;fill-opacity:1;fill-rule:evenodd;stroke:none"
         d="m 4645,2230 c -37.5,18.75 -48.75,18.75 -105,30 56.25,11.25 67.5,11.25 105,30 -7.5,-22.5 -7.5,-37.5 0,-60" /><path
         id="path290"
         style="fill:#000000;fill-opacity:1;fill-rule:evenodd;stroke:none"
         d="m 4645,1630 c -37.5,18.75 -48.75,18.75 -105,30 56.25,11.25 67.5,11.25 105,30 -7.5,-22.5 -7.5,-37.5 0,-60" /><path
         id="path292"
         style="fill:#000000;fill-opacity:1;fill-rule:evenodd;stroke:none"
         d="m 7885,3970 c -37.5,18.75 -48.75,18.75 -105,30 56.25,11.25 67.5,11.25 105,30 -7.5,-22.5 -7.5,-37.5 0,-60" /><path
         id="path294"
         style="fill:#000000;fill-opacity:1;fill-rule:evenodd;stroke:none"
         d="m 8215,3970 c 37.5,18.75 48.75,18.75 105,30 -56.25,11.25 -67.5,11.25 -105,30 7.5,-22.5 7.5,-37.5 0,-60" /><path
         id="path296"
         style="fill:#000000;fill-opacity:1;fill-rule:evenodd;stroke:none"
         d="m 6475,4390 c 37.5,18.75 48.75,18.75 105,30 -56.25,11.25 -67.5,11.25 -105,30 7.5,-22.5 7.5,-37.5 0,-60" /><path
         id="path298"
         style="fill:#000000;fill-opacity:1;fill-rule:evenodd;stroke:none"
         d="m 6475,4150 c 37.5,18.75 48.75,18.75 105,30 -56.25,11.25 -67.5,11.25 -105,30 7.5,-22.5 7.5,-37.5 0,-60" /><path
         id="path300"
         style="fill:#000000;fill-opacity:1;fill-rule:evenodd;stroke:none"
         d="m 6475,3910 c 37.5,18.75 48.75,18.75 105,30 -56.25,11.25 -67.5,11.25 -105,30 7.5,-22.5 7.5,-37.5 0,-60" /><path
         id="path302"
         style="fill:#000000;fill-opacity:1;fill-rule:evenodd;stroke:none"
         d="m 6475,3670 c 37.5,18.75 48.75,18.75 105,30 -56.25,11.25 -67.5,11.25 -105,30 7.5,-22.5 7.5,-37.5 0,-60" /><path
         id="path304"
         style="fill:#000000;fill-opacity:1;fill-rule:evenodd;stroke:none"
         d="m 6475,3430 c 37.5,18.75 48.75,18.75 105,30 -56.25,11.25 -67.5,11.25 -105,30 7.5,-22.5 7.5,-37.5 0,-60" /><path
         id="path306"
         style="fill:#000000;fill-opacity:1;fill-rule:evenodd;stroke:none"
         d="m 6475,2830 c 37.5,18.75 48.75,18.75 105,30 -56.25,11.25 -67.5,11.25 -105,30 7.5,-22.5 7.5,-37.5 0,-60" /><path
         id="path308"
         style="fill:#000000;fill-opacity:1;fill-rule:evenodd;stroke:none"
         d="m 6475,2230 c 37.5,18.75 48.75,18.75 105,30 -56.25,11.25 -67.5,11.25 -105,30 7.5,-22.5 7.5,-37.5 0,-60" /><path
         id="path310"
         style="fill:#000000;fill-opacity:1;fill-rule:evenodd;stroke:none"
         d="m 6475,1630 c 37.5,18.75 48.75,18.75 105,30 -56.25,11.25 -67.5,11.25 -105,30 7.5,-22.5 7.5,-37.5 0,-60" /><path
         id="path312"
         style="fill:#000000;fill-opacity:1;fill-rule:evenodd;stroke:none"
         d="m 4435,1870 c 37.5,18.75 48.75,18.75 105,30 -56.25,11.25 -67.5,11.25 -105,30 7.5,-22.5 7.5,-37.5 0,-60" /><path
         id="path314"
         style="fill:#000000;fill-opacity:1;fill-rule:evenodd;stroke:none"
         d="m 4855,2050 c 37.5,18.75 48.75,18.75 105,30 -56.25,11.25 -67.5,11.25 -105,30 7.5,-22.5 7.5,-37.5 0,-60" /><path
         id="path316"
         style="fill:#000000;fill-opacity:1;fill-rule:evenodd;stroke:none"
         d="m 4855,2410 c 37.5,18.75 48.75,18.75 105,30 -56.25,11.25 -67.5,11.25 -105,30 7.5,-22.5 7.5,-37.5 0,-60" /><path
         id="path318"
         style="fill:#000000;fill-opacity:1;fill-rule:evenodd;stroke:none"
         d="m 3715,730 c 37.5,18.75 48.75,18.75 105,30 -56.25,11.25 -67.5,11.25 -105,30 7.5,-22.5 7.5,-37.5 0,-60" /><path
         id="path320"
         style="fill:#000000;fill-opacity:1;fill-rule:evenodd;stroke:none"
         d="m 3715,430 c 37.5,18.75 48.75,18.75 105,30 -56.25,11.25 -67.5,11.25 -105,30 7.5,-22.5 7.5,-37.5 0,-60" /><path
         id="path322"
         style="fill:#000000;fill-opacity:1;fill-rule:evenodd;stroke:none"
         d="m 4435,4090 c 37.5,18.75 48.75,18.75 105,30 -56.25,11.25 -67.5,11.25 -105,30 7.5,-22.5 7.5,-37.5 0,-60" /><path
         id="path324"
         style="fill:#000000;fill-opacity:1;fill-rule:evenodd;stroke:none"
         d="m 1930,5965 c -18.75,-37.5 -18.75,-48.75 -30,-105 -11.25,56.25 -11.25,67.5 -30,105 22.5,-7.5 37.5,-7.5 60,0" /><path
         id="path326"
         style="fill:#000000;fill-opacity:1;fill-rule:evenodd;stroke:none"
         d="m 490,2845 c -18.75,-37.5 -18.75,-48.75 -30,-105 -11.25,56.25 -11.25,67.5 -30,105 22.5,-7.5 37.5,-7.5 60,0" /><path
         id="path328"
         style="fill:#000000;fill-opacity:1;fill-rule:evenodd;stroke:none"
         d="m 1750,2815 c -18.75,37.5 -18.75,48.75 -30,105 -11.25,-56.25 -11.25,-67.5 -30,-105 22.5,7.5 37.5,7.5 60,0" /><path
         id="path330"
         style="fill:#000000;fill-opacity:1;fill-rule:evenodd;stroke:none"
         d="m 1930,4735 c -18.75,37.5 -18.75,48.75 -30,105 -11.25,-56.25 -11.25,-67.5 -30,-105 22.5,7.5 37.5,7.5 60,0" /><path
         id="path332"
         style="fill:none;stroke:#000000;stroke-width:9.75;stroke-linecap:round;stroke-linejoin:miter;stroke-miterlimit:6;stroke-dasharray:39, 39;stroke-dashoffset:0;stroke-opacity:1"
         d="M 820,3820 H 3820" /><g
         transform="scale(10)"
         id="g334"><text
           id="text338"
           style="font-variant:normal;font-weight:normal;font-size:15px;font-family:Helvetica;-inkscape-font-specification:Helvetica;writing-mode:lr-tb;fill:#000000;fill-opacity:1;fill-rule:nonzero;stroke:none"
           transform="matrix(1,0,0,-1,260.502,388)"><tspan
             id="tspan336"
             y="0"
             x="0 4.1700001 11.67 20.01 23.34 31.68 35.849998 39.18 47.52 55.860001 60.029999 65.025002 73.364998 81.705002 85.875 89.205002 97.544998 105.885 114.225 117.555">Isolation (optional)</tspan></text>
</g><path
         id="path340"
         style="fill:none;stroke:#000000;stroke-width:9.75;stroke-linecap:round;stroke-linejoin:miter;stroke-miterlimit:6;stroke-dasharray:none;stroke-opacity:1"
         d="M 8320,2860 H 8020" /><path
         id="path342"
         style="fill:#000000;fill-opacity:1;fill-rule:evenodd;stroke:none"
         d="m 8215,2830 c 37.5,18.75 48.75,18.75 105,30 -56.25,11.25 -67.5,11.25 -105,30 7.5,-22.5 7.5,-37.5 0,-60" /><path
         id="path344"
         style="fill:#000000;fill-opacity:1;fill-rule:evenodd;stroke:none"
         d="m 8125,2830 c -37.5,18.75 -48.75,18.75 -105,30 56.25,11.25 67.5,11.25 105,30 -7.5,-22.5 -7.5,-37.5 0,-60" /><path
         id="path346"
         style="fill:none;stroke:#000000;stroke-width:9.75;stroke-linecap:round;stroke-linejoin:miter;stroke-miterlimit:6;stroke-dasharray:none;stroke-opacity:1"
         d="M 8320,2260 H 8020" /><path
         id="path348"
         style="fill:#000000;fill-opacity:1;fill-rule:evenodd;stroke:none"
         d="m 8215,2230 c 37.5,18.75 48.75,18.75 105,30 -56.25,11.25 -67.5,11.25 -105,30 7.5,-22.5 7.5,-37.5 0,-60" /><path
         id="path350"
         style="fill:#000000;fill-opacity:1;fill-rule:evenodd;stroke:none"
         d="m 8125,2230 c -37.5,18.75 -48.75,18.75 -105,30 56.25,11.25 67.5,11.25 105,30 -7.5,-22.5 -7.5,-37.5 0,-60" /><path
         id="path352"
         style="fill:none;stroke:#000000;stroke-width:9.75;stroke-linecap:round;stroke-linejoin:miter;stroke-miterlimit:6;stroke-dasharray:none;stroke-opacity:1"
         d="M 8320,1660 H 8020" /><path
         id="path354"
         style="fill:#000000;fill-opacity:1;fill-rule:evenodd;stroke:none"
         d="m 8215,1630 c 37.5,18.75 48.75,18.75 105,30 -56.25,11.25 -67.5,11.25 -105,30 7.5,-22.5 7.5,-37.5 0,-60" /><path
         id="path356"
         style="fill:#000000;fill-opacity:1;fill-rule:evenodd;stroke:none"
         d="m 8125,1630 c -37.5,18.75 -48.75,18.75 -105,30 56.25,11.25 67.5,11.25 105,30 -7.5,-22.5 -7.5,-37.5 0,-60" /></g></g></svg>